<mxfile host="app.diagrams.net" modified="2023-03-12T08:39:07.658Z" agent="5.0 (Windows)" etag="QPl4BAyuASR4jURIKQ3I" version="20.2.8" type="github">
  <diagram id="C5RBs43oDa-KdzZeNtuy" name="Page-1">
    <mxGraphModel dx="2067" dy="669" grid="1" gridSize="10" guides="1" tooltips="1" connect="1" arrows="1" fold="1" page="1" pageScale="1" pageWidth="827" pageHeight="1169" math="0" shadow="0">
      <root>
        <mxCell id="WIyWlLk6GJQsqaUBKTNV-0" />
        <mxCell id="WIyWlLk6GJQsqaUBKTNV-1" parent="WIyWlLk6GJQsqaUBKTNV-0" />
        <mxCell id="EpzKcQoJz6bh7GOR1WEz-5" style="edgeStyle=orthogonalEdgeStyle;rounded=0;orthogonalLoop=1;jettySize=auto;html=1;exitX=0.5;exitY=1;exitDx=0;exitDy=0;entryX=0.375;entryY=0;entryDx=0;entryDy=0;entryPerimeter=0;" edge="1" parent="WIyWlLk6GJQsqaUBKTNV-1" source="zkfFHV4jXpPFQw0GAbJ--17" target="EpzKcQoJz6bh7GOR1WEz-7">
          <mxGeometry relative="1" as="geometry">
            <mxPoint x="-79.95238095238096" y="520" as="targetPoint" />
            <Array as="points">
              <mxPoint x="190" y="535" />
              <mxPoint x="-80" y="535" />
            </Array>
          </mxGeometry>
        </mxCell>
        <mxCell id="EpzKcQoJz6bh7GOR1WEz-11" style="edgeStyle=orthogonalEdgeStyle;rounded=0;orthogonalLoop=1;jettySize=auto;html=1;exitX=0.5;exitY=1;exitDx=0;exitDy=0;" edge="1" parent="WIyWlLk6GJQsqaUBKTNV-1" source="zkfFHV4jXpPFQw0GAbJ--17">
          <mxGeometry relative="1" as="geometry">
            <mxPoint x="190.1428571428571" y="570" as="targetPoint" />
            <Array as="points">
              <mxPoint x="195" y="540" />
              <mxPoint x="190" y="540" />
            </Array>
          </mxGeometry>
        </mxCell>
        <mxCell id="EpzKcQoJz6bh7GOR1WEz-17" style="edgeStyle=orthogonalEdgeStyle;rounded=0;orthogonalLoop=1;jettySize=auto;html=1;exitX=0.5;exitY=1;exitDx=0;exitDy=0;entryX=0.5;entryY=0;entryDx=0;entryDy=0;" edge="1" parent="WIyWlLk6GJQsqaUBKTNV-1" source="zkfFHV4jXpPFQw0GAbJ--17" target="EpzKcQoJz6bh7GOR1WEz-18">
          <mxGeometry relative="1" as="geometry">
            <mxPoint x="510" y="560" as="targetPoint" />
          </mxGeometry>
        </mxCell>
        <mxCell id="zkfFHV4jXpPFQw0GAbJ--17" value="BaseJobBackend" style="swimlane;fontStyle=0;align=center;verticalAlign=top;childLayout=stackLayout;horizontal=1;startSize=26;horizontalStack=0;resizeParent=1;resizeLast=0;collapsible=1;marginBottom=0;rounded=0;shadow=0;strokeWidth=1;" parent="WIyWlLk6GJQsqaUBKTNV-1" vertex="1">
          <mxGeometry x="110" y="420" width="170" height="90" as="geometry">
            <mxRectangle x="600" y="90" width="160" height="26" as="alternateBounds" />
          </mxGeometry>
        </mxCell>
        <mxCell id="zkfFHV4jXpPFQw0GAbJ--23" value="" style="line;html=1;strokeWidth=1;align=left;verticalAlign=middle;spacingTop=-1;spacingLeft=3;spacingRight=3;rotatable=0;labelPosition=right;points=[];portConstraint=eastwest;" parent="zkfFHV4jXpPFQw0GAbJ--17" vertex="1">
          <mxGeometry y="26" width="170" height="8" as="geometry" />
        </mxCell>
        <mxCell id="zkfFHV4jXpPFQw0GAbJ--24" value="enqueue (Not implemented)" style="text;align=left;verticalAlign=top;spacingLeft=4;spacingRight=4;overflow=hidden;rotatable=0;points=[[0,0.5],[1,0.5]];portConstraint=eastwest;" parent="zkfFHV4jXpPFQw0GAbJ--17" vertex="1">
          <mxGeometry y="34" width="170" height="26" as="geometry" />
        </mxCell>
        <mxCell id="zkfFHV4jXpPFQw0GAbJ--25" value="defer (Not implemented)" style="text;align=left;verticalAlign=top;spacingLeft=4;spacingRight=4;overflow=hidden;rotatable=0;points=[[0,0.5],[1,0.5]];portConstraint=eastwest;" parent="zkfFHV4jXpPFQw0GAbJ--17" vertex="1">
          <mxGeometry y="60" width="170" height="26" as="geometry" />
        </mxCell>
        <mxCell id="EpzKcQoJz6bh7GOR1WEz-7" value="CeleryBackend" style="swimlane;fontStyle=0;align=center;verticalAlign=top;childLayout=stackLayout;horizontal=1;startSize=26;horizontalStack=0;resizeParent=1;resizeLast=0;collapsible=1;marginBottom=0;rounded=0;shadow=0;strokeWidth=1;" vertex="1" parent="WIyWlLk6GJQsqaUBKTNV-1">
          <mxGeometry x="-140" y="570" width="180" height="90" as="geometry">
            <mxRectangle x="600" y="90" width="160" height="26" as="alternateBounds" />
          </mxGeometry>
        </mxCell>
        <mxCell id="EpzKcQoJz6bh7GOR1WEz-8" value="" style="line;html=1;strokeWidth=1;align=left;verticalAlign=middle;spacingTop=-1;spacingLeft=3;spacingRight=3;rotatable=0;labelPosition=right;points=[];portConstraint=eastwest;" vertex="1" parent="EpzKcQoJz6bh7GOR1WEz-7">
          <mxGeometry y="26" width="180" height="8" as="geometry" />
        </mxCell>
        <mxCell id="EpzKcQoJz6bh7GOR1WEz-9" value="enqueue ( uses celery APIs )" style="text;align=left;verticalAlign=top;spacingLeft=4;spacingRight=4;overflow=hidden;rotatable=0;points=[[0,0.5],[1,0.5]];portConstraint=eastwest;" vertex="1" parent="EpzKcQoJz6bh7GOR1WEz-7">
          <mxGeometry y="34" width="180" height="26" as="geometry" />
        </mxCell>
        <mxCell id="EpzKcQoJz6bh7GOR1WEz-10" value="defer ( uses celery APIs )" style="text;align=left;verticalAlign=top;spacingLeft=4;spacingRight=4;overflow=hidden;rotatable=0;points=[[0,0.5],[1,0.5]];portConstraint=eastwest;" vertex="1" parent="EpzKcQoJz6bh7GOR1WEz-7">
          <mxGeometry y="60" width="180" height="26" as="geometry" />
        </mxCell>
        <mxCell id="EpzKcQoJz6bh7GOR1WEz-12" value="ImmediateBackend" style="swimlane;fontStyle=0;align=center;verticalAlign=top;childLayout=stackLayout;horizontal=1;startSize=26;horizontalStack=0;resizeParent=1;resizeLast=0;collapsible=1;marginBottom=0;rounded=0;shadow=0;strokeWidth=1;" vertex="1" parent="WIyWlLk6GJQsqaUBKTNV-1">
          <mxGeometry x="110" y="570" width="160" height="90" as="geometry">
            <mxRectangle x="600" y="90" width="160" height="26" as="alternateBounds" />
          </mxGeometry>
        </mxCell>
        <mxCell id="EpzKcQoJz6bh7GOR1WEz-13" value="" style="line;html=1;strokeWidth=1;align=left;verticalAlign=middle;spacingTop=-1;spacingLeft=3;spacingRight=3;rotatable=0;labelPosition=right;points=[];portConstraint=eastwest;" vertex="1" parent="EpzKcQoJz6bh7GOR1WEz-12">
          <mxGeometry y="26" width="160" height="8" as="geometry" />
        </mxCell>
        <mxCell id="EpzKcQoJz6bh7GOR1WEz-14" value="enqueue " style="text;align=left;verticalAlign=top;spacingLeft=4;spacingRight=4;overflow=hidden;rotatable=0;points=[[0,0.5],[1,0.5]];portConstraint=eastwest;" vertex="1" parent="EpzKcQoJz6bh7GOR1WEz-12">
          <mxGeometry y="34" width="160" height="25" as="geometry" />
        </mxCell>
        <mxCell id="EpzKcQoJz6bh7GOR1WEz-15" value="defer" style="text;align=left;verticalAlign=top;spacingLeft=4;spacingRight=4;overflow=hidden;rotatable=0;points=[[0,0.5],[1,0.5]];portConstraint=eastwest;" vertex="1" parent="EpzKcQoJz6bh7GOR1WEz-12">
          <mxGeometry y="59" width="160" height="26" as="geometry" />
        </mxCell>
        <mxCell id="EpzKcQoJz6bh7GOR1WEz-18" value="RqBackend" style="swimlane;fontStyle=0;align=center;verticalAlign=top;childLayout=stackLayout;horizontal=1;startSize=26;horizontalStack=0;resizeParent=1;resizeLast=0;collapsible=1;marginBottom=0;rounded=0;shadow=0;strokeWidth=1;" vertex="1" parent="WIyWlLk6GJQsqaUBKTNV-1">
          <mxGeometry x="370" y="570" width="160" height="90" as="geometry">
            <mxRectangle x="600" y="90" width="160" height="26" as="alternateBounds" />
          </mxGeometry>
        </mxCell>
        <mxCell id="EpzKcQoJz6bh7GOR1WEz-19" value="" style="line;html=1;strokeWidth=1;align=left;verticalAlign=middle;spacingTop=-1;spacingLeft=3;spacingRight=3;rotatable=0;labelPosition=right;points=[];portConstraint=eastwest;" vertex="1" parent="EpzKcQoJz6bh7GOR1WEz-18">
          <mxGeometry y="26" width="160" height="8" as="geometry" />
        </mxCell>
        <mxCell id="EpzKcQoJz6bh7GOR1WEz-20" value="enqueue ( uses rq APIs )" style="text;align=left;verticalAlign=top;spacingLeft=4;spacingRight=4;overflow=hidden;rotatable=0;points=[[0,0.5],[1,0.5]];portConstraint=eastwest;" vertex="1" parent="EpzKcQoJz6bh7GOR1WEz-18">
          <mxGeometry y="34" width="160" height="26" as="geometry" />
        </mxCell>
        <mxCell id="EpzKcQoJz6bh7GOR1WEz-21" value="defer ( uses rq APIs )" style="text;align=left;verticalAlign=top;spacingLeft=4;spacingRight=4;overflow=hidden;rotatable=0;points=[[0,0.5],[1,0.5]];portConstraint=eastwest;" vertex="1" parent="EpzKcQoJz6bh7GOR1WEz-18">
          <mxGeometry y="60" width="160" height="26" as="geometry" />
        </mxCell>
        <mxCell id="EpzKcQoJz6bh7GOR1WEz-29" style="edgeStyle=orthogonalEdgeStyle;rounded=0;orthogonalLoop=1;jettySize=auto;html=1;exitX=1;exitY=0.5;exitDx=0;exitDy=0;" edge="1" parent="WIyWlLk6GJQsqaUBKTNV-1" source="EpzKcQoJz6bh7GOR1WEz-24">
          <mxGeometry relative="1" as="geometry">
            <mxPoint x="195" y="530" as="targetPoint" />
            <Array as="points">
              <mxPoint x="380" y="200" />
              <mxPoint x="380" y="530" />
            </Array>
          </mxGeometry>
        </mxCell>
        <mxCell id="EpzKcQoJz6bh7GOR1WEz-51" value="2. selects&amp;nbsp; the appropriate backend" style="edgeLabel;html=1;align=center;verticalAlign=middle;resizable=0;points=[];fontSize=16;" vertex="1" connectable="0" parent="EpzKcQoJz6bh7GOR1WEz-29">
          <mxGeometry x="-0.4218" y="6" relative="1" as="geometry">
            <mxPoint x="14" y="25" as="offset" />
          </mxGeometry>
        </mxCell>
        <mxCell id="EpzKcQoJz6bh7GOR1WEz-24" value="BackgroundJobBackendHandler" style="swimlane;fontStyle=0;align=center;verticalAlign=top;childLayout=stackLayout;horizontal=1;startSize=26;horizontalStack=0;resizeParent=1;resizeLast=0;collapsible=1;marginBottom=0;rounded=0;shadow=0;strokeWidth=1;" vertex="1" parent="WIyWlLk6GJQsqaUBKTNV-1">
          <mxGeometry x="30" y="110" width="330" height="180" as="geometry">
            <mxRectangle x="600" y="90" width="160" height="26" as="alternateBounds" />
          </mxGeometry>
        </mxCell>
        <mxCell id="EpzKcQoJz6bh7GOR1WEz-25" value="" style="line;html=1;strokeWidth=1;align=left;verticalAlign=middle;spacingTop=-1;spacingLeft=3;spacingRight=3;rotatable=0;labelPosition=right;points=[];portConstraint=eastwest;" vertex="1" parent="EpzKcQoJz6bh7GOR1WEz-24">
          <mxGeometry y="26" width="330" height="8" as="geometry" />
        </mxCell>
        <mxCell id="EpzKcQoJz6bh7GOR1WEz-39" value="Validates the provided backend in the  configurations&#xa;" style="text;align=left;verticalAlign=top;spacingLeft=4;spacingRight=4;overflow=hidden;rotatable=0;points=[[0,0.5],[1,0.5]];portConstraint=eastwest;fontSize=12;" vertex="1" parent="EpzKcQoJz6bh7GOR1WEz-24">
          <mxGeometry y="34" width="330" height="36" as="geometry" />
        </mxCell>
        <mxCell id="EpzKcQoJz6bh7GOR1WEz-46" value="selects the appropriate backend after validation" style="text;align=left;verticalAlign=top;spacingLeft=4;spacingRight=4;overflow=hidden;rotatable=0;points=[[0,0.5],[1,0.5]];portConstraint=eastwest;" vertex="1" parent="EpzKcQoJz6bh7GOR1WEz-24">
          <mxGeometry y="70" width="330" height="36" as="geometry" />
        </mxCell>
        <mxCell id="EpzKcQoJz6bh7GOR1WEz-47" value="created a global singleton object ( background )&#xa;for that backend class&#xa;" style="text;align=left;verticalAlign=top;spacingLeft=4;spacingRight=4;overflow=hidden;rotatable=0;points=[[0,0.5],[1,0.5]];portConstraint=eastwest;" vertex="1" parent="EpzKcQoJz6bh7GOR1WEz-24">
          <mxGeometry y="106" width="330" height="44" as="geometry" />
        </mxCell>
        <mxCell id="EpzKcQoJz6bh7GOR1WEz-31" style="edgeStyle=orthogonalEdgeStyle;rounded=0;orthogonalLoop=1;jettySize=auto;html=1;" edge="1" parent="WIyWlLk6GJQsqaUBKTNV-1">
          <mxGeometry relative="1" as="geometry">
            <mxPoint x="-200" y="250.55946811266915" as="sourcePoint" />
            <mxPoint x="30" y="190" as="targetPoint" />
            <Array as="points">
              <mxPoint x="-200" y="190" />
            </Array>
          </mxGeometry>
        </mxCell>
        <mxCell id="EpzKcQoJz6bh7GOR1WEz-48" value="1. Picks&amp;nbsp; up the backend name from the configuration&amp;nbsp; " style="edgeLabel;html=1;align=center;verticalAlign=middle;resizable=0;points=[];fontSize=16;" vertex="1" connectable="0" parent="EpzKcQoJz6bh7GOR1WEz-31">
          <mxGeometry x="-0.1386" y="-1" relative="1" as="geometry">
            <mxPoint x="-48" y="-39" as="offset" />
          </mxGeometry>
        </mxCell>
        <mxCell id="EpzKcQoJz6bh7GOR1WEz-28" value="&lt;div&gt;configurations&lt;/div&gt;&lt;div&gt;in settings.py&lt;br&gt;&lt;/div&gt;" style="ellipse;whiteSpace=wrap;html=1;" vertex="1" parent="WIyWlLk6GJQsqaUBKTNV-1">
          <mxGeometry x="-260" y="250" width="120" height="80" as="geometry" />
        </mxCell>
        <mxCell id="EpzKcQoJz6bh7GOR1WEz-52" style="edgeStyle=orthogonalEdgeStyle;rounded=0;orthogonalLoop=1;jettySize=auto;html=1;exitX=1;exitY=0.5;exitDx=0;exitDy=0;fontSize=16;" edge="1" parent="WIyWlLk6GJQsqaUBKTNV-1" source="EpzKcQoJz6bh7GOR1WEz-39">
          <mxGeometry relative="1" as="geometry">
            <mxPoint x="440" y="162" as="targetPoint" />
          </mxGeometry>
        </mxCell>
        <mxCell id="EpzKcQoJz6bh7GOR1WEz-53" value="&lt;div&gt;Global Singleton&lt;/div&gt;&lt;div&gt;object of selected&lt;/div&gt;&lt;div&gt;backend class&lt;/div&gt;&lt;div&gt;( background )&lt;br&gt;&lt;/div&gt;" style="whiteSpace=wrap;html=1;aspect=fixed;fontSize=16;" vertex="1" parent="WIyWlLk6GJQsqaUBKTNV-1">
          <mxGeometry x="440" y="100" width="160" height="160" as="geometry" />
        </mxCell>
        <mxCell id="EpzKcQoJz6bh7GOR1WEz-54" value="3.&amp;nbsp; creates object of selected backend" style="text;html=1;align=center;verticalAlign=middle;resizable=0;points=[];autosize=1;strokeColor=none;fillColor=none;fontSize=16;" vertex="1" parent="WIyWlLk6GJQsqaUBKTNV-1">
          <mxGeometry x="265" y="55" width="290" height="30" as="geometry" />
        </mxCell>
      </root>
    </mxGraphModel>
  </diagram>
</mxfile>
